<svg width="262" height="76" viewBox="0 0 262 76" fill="none" xmlns="http://www.w3.org/2000/svg">
<path d="M261.5 38C261.5 42.9965 258.006 47.8641 251.423 52.379C244.855 56.8829 235.32 60.9588 223.492 64.3899C199.842 71.25 167.141 75.5 131 75.5C94.8588 75.5 62.1579 71.25 38.5083 64.3899C26.6802 60.9588 17.1446 56.8829 10.5774 52.379C3.99426 47.8641 0.5 42.9965 0.5 38C0.5 33.0035 3.99426 28.1359 10.5774 23.621C17.1446 19.1171 26.6802 15.0412 38.5083 11.6101C62.1579 4.74997 94.8588 0.5 131 0.5C167.141 0.5 199.842 4.74997 223.492 11.6101C235.32 15.0412 244.855 19.1171 251.423 23.621C258.006 28.1359 261.5 33.0035 261.5 38Z" stroke="black"/>
</svg>
